<svg id="Layer_1" data-name="Layer 1" xmlns="http://www.w3.org/2000/svg" xmlns:xlink="http://www.w3.org/1999/xlink" viewBox="0 0 384.74 275.38"><defs><linearGradient id="linear-gradient" x1="205.92" y1="128.93" x2="207.05" y2="255.07" gradientUnits="userSpaceOnUse"><stop offset="0"/><stop offset="1" stop-opacity="0"/></linearGradient><linearGradient id="linear-gradient-2" x1="212.69" y1="565.7" x2="214.38" y2="44.82" xlink:href="#linear-gradient"/><linearGradient id="linear-gradient-3" x1="247.06" y1="234.74" x2="330.16" y2="126.15" xlink:href="#linear-gradient"/><linearGradient id="linear-gradient-4" x1="174.78" y1="196.81" x2="95.95" y2="128.11" xlink:href="#linear-gradient"/><linearGradient id="linear-gradient-5" x1="104.99" y1="138.74" x2="130.05" y2="120.16" xlink:href="#linear-gradient"/><linearGradient id="linear-gradient-6" x1="122.21" y1="137.05" x2="110.95" y2="111" xlink:href="#linear-gradient"/></defs><title>19</title><path d="M197,26.62a131.78,131.78,0,0,0-33.8,15.58c-10.82,7.06-18.1,17-28,24.9-19.35,15.34-43.51,25.64-66.67,33.62-9.21,3.18-18.64,6.24-26.63,11.82-12.26,8.56-20,22.29-24.85,36.43C6.37,180,8.21,215.82,24.62,244.29c16,27.66,47.38,48.82,79.94,48,41.17-1,82.7,2,124,2,28.77.68,57.65,1.35,86.25-1.87,11.95-1.35,24-3.43,34.84-8.67,20.33-9.85,37.61-27.17,43.33-49.43a69.79,69.79,0,0,0-8.29-53.65c-6.06-9.72-14.54-17.92-19.34-28.32-6.45-14-5.47-30.08-7.36-45.36a118.83,118.83,0,0,0-22.6-56.14C328,41,318.75,32.06,307.36,27.19c-7.85-3.35-16.41-4.65-24.89-5.64-27.34-3.16-55.43-3.23-82,4.07C199.33,25.94,198.17,26.27,197,26.62Z" transform="translate(-10.37 -19.51)" fill="#db4b23" opacity="0.18" style="isolation:isolate"/><rect x="173.36" y="216.96" width="67.01" height="35.14" fill="#db4b23"/><rect x="173.36" y="216.96" width="67.01" height="35.14" fill="url(#linear-gradient)"/><path d="M327.86,118.05v99.76a21,21,0,0,1-21,21.05H121.14a21,21,0,0,1-21-21.05V118.05a21,21,0,0,1,21-21H306.82A21,21,0,0,1,327.86,118.05Z" transform="translate(-10.37 -19.51)" fill="#fff"/><path d="M327.86,118.05v99.76a21,21,0,0,1-21,21.05H121.14a21,21,0,0,1-21-21.05V118.05a21,21,0,0,1,21-21H306.82A21,21,0,0,1,327.86,118.05Z" transform="translate(-10.37 -19.51)" fill="url(#linear-gradient-2)"/><path d="M327.86,210.81v7a21,21,0,0,1-21,21.05H121.14a21,21,0,0,1-21-21.05v-7Z" transform="translate(-10.37 -19.51)" fill="#db4b23"/><path d="M318.37,159.5S312.12,180,314,184.45s22,23.74,22,23.74l5.19-4.31L326,182.06s5.78-22.71.93-28.82S318.37,159.5,318.37,159.5Z" transform="translate(-10.37 -19.51)" fill="#282328"/><path d="M327.4,149.72a26.47,26.47,0,0,1,8.32,10.45c3,6.81-1.73,22.9-1.73,22.9l20.19,10.81-2.57,7s-24.44-9-27.2-12.31-6.18-26.28-6.18-26.28Z" transform="translate(-10.37 -19.51)" fill="#473f47"/><path d="M296.91,127.05l-8.14-3.16a10.59,10.59,0,0,0-2-.64c-.71-.12-1.43-.09-2.14-.15a28.61,28.61,0,0,1-5.17-1.45,6.65,6.65,0,0,1-2-.85,2.84,2.84,0,0,1-1.22-1.7,2.78,2.78,0,0,1,1.85-2.95,5,5,0,0,1,3.68.31c1.56.7,3.12,1.16,4.67,1.88,1.88.87,3.78,1.71,5.69,2.54a34.68,34.68,0,0,0,16.73,2.85c1.48.74,3.05,4.6,3.4,6.22C311.38,130.17,301,128.65,296.91,127.05Z" transform="translate(-10.37 -19.51)" fill="#ffbbab"/><path d="M143.78,130.16l8.73.15a10.2,10.2,0,0,1,2.14.18c.7.16,1.35.46,2,.67a8.3,8.3,0,0,0,6.36-.66c1.46-.81,2.7-2.08,4.32-2.53a1.87,1.87,0,0,0,.9-.38,1.07,1.07,0,0,0,0-1.34,2.35,2.35,0,0,0-1.2-.79,9.05,9.05,0,0,0-5.23.12,14.87,14.87,0,0,1-3.25.38c-2.69.16-5.38.24-8.08.3A34.55,34.55,0,0,1,134,122.57c-1.65.13-4.57,3.11-5.51,4.47C129.2,127.57,139.37,130.08,143.78,130.16Z" transform="translate(-10.37 -19.51)" fill="#ffbbab"/><path d="M133.82,121.26a1,1,0,0,1,.45.69,1,1,0,0,1-.4.65l-3.45,3.25a4.68,4.68,0,0,1-1.77,1.2,4.3,4.3,0,0,1-2.22-.14,38.79,38.79,0,0,1-9.84-4,10.65,10.65,0,0,1-2.7-2.05,4.4,4.4,0,0,1-1.21-3.09,4.11,4.11,0,0,1,1.87-3.08c2.37-1.6,4.75-1.13,7.24-.23a40.34,40.34,0,0,1,7.92,3.87A41.23,41.23,0,0,1,133.82,121.26Z" transform="translate(-10.37 -19.51)" fill="#db4b23"/><path d="M303.29,123.81V225.63a5.66,5.66,0,0,1-5.65,5.65H145.81a5.66,5.66,0,0,1-5.65-5.65V123.81a5.64,5.64,0,0,1,5.65-5.65H297.64A5.64,5.64,0,0,1,303.29,123.81Z" transform="translate(-10.37 -19.51)" fill="#fff"/><path d="M303.29,123.81v1.87H140.16v-1.87a5.64,5.64,0,0,1,5.65-5.65H297.64A5.64,5.64,0,0,1,303.29,123.81Z" transform="translate(-10.37 -19.51)" fill="#db4b23"/><path d="M103.28,148.63S100.34,155.79,97,156s-30.73-2.26-30.73-2.26l-.79-3.27s17.29-2.79,21-1.85a59.09,59.09,0,0,0,5.79,1.22L94.75,148Z" transform="translate(-10.37 -19.51)" fill="#ef9786"/><path d="M111.24,148.86a4.52,4.52,0,0,1,0,5.12c-1.81,2.71-33.59,18.37-33.59,18.37l-1.51-3.46s16.69-15.21,20.47-15.51a3.13,3.13,0,0,0,3.18-3.71Z" transform="translate(-10.37 -19.51)" fill="#ffbbab"/><path d="M121.93,133.39s.27,3.3,4.67,4.88,23.05,0,23.05,0c1.93,0,3.84,1.52,5.73,1.09s3.52-2.42,2.85-4.23a3.48,3.48,0,0,0-2.12-1.92,9.9,9.9,0,0,0-2.92-.46,11.34,11.34,0,0,0-5.09.51,19.91,19.91,0,0,1-2,1,7.81,7.81,0,0,1-2.46.2l-10.13-.31c-1.95-.06-4.27-.33-5.17-2.06-.31-.59-.45-1.34-1-1.68a1.82,1.82,0,0,0-1.22-.12C124.19,130.59,123.32,132.12,121.93,133.39Z" transform="translate(-10.37 -19.51)" fill="#ffbbab"/><path d="M120.51,132.79a1.82,1.82,0,0,0,.57.47,1.75,1.75,0,0,0,.85.13,13.74,13.74,0,0,0,5.52-1.85.4.4,0,0,0,.23-.21.3.3,0,0,0,0-.23l-2-6.68a5.36,5.36,0,0,0-.94-2,3.24,3.24,0,0,0-2.7-1,6,6,0,0,0-2.73,1.09,5.51,5.51,0,0,0-2,2.18c-.67,1.46,0,2.62.56,3.95A14,14,0,0,0,120.51,132.79Z" transform="translate(-10.37 -19.51)" fill="#db4b23"/><path d="M135.09,111.55a5.91,5.91,0,0,0,0,1,1.27,1.27,0,0,1-.15.91c-.22.25-.6.25-.91.37-1,.36-1.21,1.8-2.17,2.25a2.29,2.29,0,0,1-1,.18,3.5,3.5,0,0,1-2.84-1.05c-.18-.22-.42-.51-.67-.38s-.16.18-.22.29c-.7,1.53-2.73,2.89-4.24,1.61a6.48,6.48,0,0,1-1.71-3.31c-.4-1.39.28-2.85.9-4.09a30.8,30.8,0,0,1,2.28-3.94c1.35-1.91,3.2-3.68,5.51-4a6.1,6.1,0,0,1,5.14,2,5.11,5.11,0,0,1,1.25,2.51,3.6,3.6,0,0,1,.11,1.5,11.41,11.41,0,0,1-.54,1.81,12.62,12.62,0,0,0-.62,2C135.12,111.31,135.1,111.43,135.09,111.55Z" transform="translate(-10.37 -19.51)" fill="#ffbbab"/><path d="M119,127.87a7.32,7.32,0,0,1-1.14.51c-2,.74-4.42.91-5.93,2.34a6.31,6.31,0,0,0-1.53,3.93,29.8,29.8,0,0,0,2.09,14.76,26.78,26.78,0,0,1-3.33.51,48,48,0,0,1-12.07-.63c-5.1-.79-10.17-1.91-15.33-2.13,1.61-1.45,2.4-3.57,3.4-5.49,3.67-7.1,10.45-11.95,16.31-17.39,2.7-2.51,5.25-5.19,8.17-7.45a15.09,15.09,0,0,1,4.9-2.74c4.9-1.44,8.25,1.94,8.88,6.57C123.87,124.15,121.83,126.23,119,127.87Z" transform="translate(-10.37 -19.51)" fill="#db4b23"/><path d="M136.71,105.63c-.18.49-.93,2.23-1.67,1.32-.06-.07-.1-.16-.19-.19s-.22,0-.32.12a6.09,6.09,0,0,1-7.63-.1l-.25.35-1.91,2.65c.22-.53-.58-1-1.09-.74a2,2,0,0,0-.85,1.43,13.9,13.9,0,0,1-.89,2.92,3.62,3.62,0,0,1-2.21,2c-1,.25-2.07-.11-3,.18-1.47.42-2.18,2-3.06,3.26-2.12,3-6,4.39-9.64,4.37a9.55,9.55,0,0,1-2.5-.29,6.73,6.73,0,0,1-4.4-3.84,6.31,6.31,0,0,1-.28-.87A6,6,0,0,1,99,112a19.47,19.47,0,0,0,3-1.9,19.5,19.5,0,0,0,1.83-3.06,8.15,8.15,0,0,1,5.52-3.15,61.65,61.65,0,0,1,6.52-.37,6.13,6.13,0,0,0,3.39-1c1-.77,1.55-2.06,2.51-2.92a7.09,7.09,0,0,1,2.9-1.38c2.78-.75,5.85-1,8.45.23a6.77,6.77,0,0,1,3.71,4.49A4.69,4.69,0,0,1,136.71,105.63Z" transform="translate(-10.37 -19.51)" fill="#fc682d"/><path d="M75.34,168a10.25,10.25,0,0,0-3.28,1.1,3,3,0,0,0-1.21.85,3,3,0,0,0-.43,1.68,18.61,18.61,0,0,0,2.14,9.28,1.28,1.28,0,0,0,.37.49,1.11,1.11,0,0,0,.84.13,3.51,3.51,0,0,0,2.41-1.8,6.6,6.6,0,0,0,.76-3,7.68,7.68,0,0,1,.19-1.86c.29-.94,1-1.67,1.41-2.58C79.59,169.75,77.94,167.69,75.34,168Z" transform="translate(-10.37 -19.51)" fill="#db4b23"/><path d="M67.54,149.58a9.75,9.75,0,0,0-3.4-.61,3.09,3.09,0,0,0-1.48.16,3,3,0,0,0-1.18,1.27,18.57,18.57,0,0,0-2.57,9.16,1.3,1.3,0,0,0,.09.62,1.12,1.12,0,0,0,.67.51,3.53,3.53,0,0,0,3-.42A6.66,6.66,0,0,0,64.75,158a7.94,7.94,0,0,1,1.06-1.54c.71-.69,1.71-1,2.48-1.59C70.41,153.19,70,150.6,67.54,149.58Z" transform="translate(-10.37 -19.51)" fill="#db4b23"/><path d="M327,131.37a4.47,4.47,0,0,1-2.74,1.89,10.69,10.69,0,0,1-3.39.18c-.46,0-.91-.07-1.37-.12a37.46,37.46,0,0,1-5.75-1c-1.11-.29-2.2-.63-3.28-1a4.36,4.36,0,0,1-1.92-1.12,4.58,4.58,0,0,1-.8-2c-.09-.39-.17-.77-.26-1.16l-.78-3.47a.75.75,0,0,1,.8-1.08,41,41,0,0,1,10.32.34c1.17.19,2.33.43,3.47.72,2.56.66,4.8,1.6,5.87,4.25A4.1,4.1,0,0,1,327,131.37Z" transform="translate(-10.37 -19.51)" fill="#db4b23"/><path d="M337.33,160.31a2.55,2.55,0,0,1-.78.89c-2.85,2.3-6.74,3-10.39,2.63a26.48,26.48,0,0,1-5-1c-1.89-.54-3.74-1.22-5.58-1.9a16.09,16.09,0,0,1,.78-5.65c.84-3.66,1.3-8,.26-11.65l-.09-.28c-.59-1.9-1.66-3.63-2.24-5.53a15.69,15.69,0,0,1-.6-5.53,16.72,16.72,0,0,1,.72-4,14.77,14.77,0,0,1,1.68-3.67,5.51,5.51,0,0,1,1.68-1.84l.07,0a6,6,0,0,1,3.9-.28c3.15.48,6.31,1.13,8.3,3.83s2.56,5.16,3.24,8.53c1.59,8,3.71,15.93,4.18,24.11A3,3,0,0,1,337.33,160.31Z" transform="translate(-10.37 -19.51)" fill="#db4b23"/><path d="M326.87,145a5.85,5.85,0,0,0-1.27,1.21,3.35,3.35,0,0,0-.35,1.43,55.76,55.76,0,0,0,.13,11.26c.14,1.19.22,2.63-.73,3.37a3.28,3.28,0,0,1-2,.5c-.5,0-1,0-1.49,0-1.89-.54-3.74-1.22-5.58-1.9a16.09,16.09,0,0,1,.78-5.65c.84-3.66,1.3-8,.26-11.65l-.09-.28c-.59-1.9-1.66-3.63-2.24-5.53a15.69,15.69,0,0,1-.6-5.53c-1.11-.29-2.2-.63-3.28-1a4.36,4.36,0,0,1-1.92-1.12,4.58,4.58,0,0,1-.8-2c-.09-.39-.17-.77-.26-1.16l.18-.49a25.59,25.59,0,0,1,6,1.42,9.55,9.55,0,0,1,4.59,3.94l1.06-.53c.06.66.11,1.32.18,2s.12,1.44.19,2.15a2.22,2.22,0,0,0,.24,1,2.26,2.26,0,0,0,.86.7c1.43.81,3,1.65,4.63,1.25s2.16-1.65,3-2.76a19.62,19.62,0,0,1,.36,3.68C328.85,141.41,328.43,143.67,326.87,145Z" transform="translate(-10.37 -19.51)" fill="url(#linear-gradient-3)"/><path d="M326.25,138.55a1.51,1.51,0,0,1-.41,1.18L321.52,145a3.4,3.4,0,0,1-.84.81,3,3,0,0,1-1.19.3c-3.09.23-6.1-1-8.91-2.28a41.36,41.36,0,0,0-7-2.93c-1.69-.45-3.5-.54-5.25-.9-1.91-.23-4,1-5.81.4s-3.21-2.83-2.33-4.54a3.45,3.45,0,0,1,2.34-1.66,10.05,10.05,0,0,1,3-.11,11.43,11.43,0,0,1,5,1.12,15.87,15.87,0,0,0,3.49,1.57,34.92,34.92,0,0,0,4.49,1.08,65,65,0,0,1,9.07,1.92.54.54,0,0,0,.46,0,.66.66,0,0,0,.24-.4c.47-1.77,2.21-5.25,4.5-4.54a4.89,4.89,0,0,1,2.4,1.88A4.62,4.62,0,0,1,326.25,138.55Z" transform="translate(-10.37 -19.51)" fill="#ffbbab"/><path d="M327.93,138.12a2.18,2.18,0,0,1-.64.37,1.78,1.78,0,0,1-.86,0,13.58,13.58,0,0,1-5.26-2.5c-.09-.06-.19-.13-.21-.23a.46.46,0,0,1,.05-.23l2.74-6.39c.39-.9.83-1.77,1.27-2.64a2.79,2.79,0,0,1,.85-1.14,2.49,2.49,0,0,1,1.27-.28,3.64,3.64,0,0,1,1.18.14,3.9,3.9,0,0,1,1.65,1.45,5.36,5.36,0,0,1,.92,1.49,4.22,4.22,0,0,1,.2,1.54,13.11,13.11,0,0,1-1.19,4.88C329.47,135.59,328.89,137.3,327.93,138.12Z" transform="translate(-10.37 -19.51)" fill="#db4b23"/><path d="M312.46,109.66c-.53,1.3-.76,2.72-1.3,4a4.36,4.36,0,0,0-.32.92,1.12,1.12,0,0,0,.23.92c.32.32.89.33,1.15.7a1.29,1.29,0,0,1,.19.61l.26,1.84a1.57,1.57,0,0,0,.18.65,1.5,1.5,0,0,0,.61.47,8.11,8.11,0,0,0,3.65.84,3.09,3.09,0,0,1,.09,2.11,5.56,5.56,0,0,0,.05,1.82.47.47,0,0,0,.1.24.41.41,0,0,0,.27.08,4.42,4.42,0,0,0,1.34-.22l3.31-.91a2.18,2.18,0,0,0,1.49-.91,3.29,3.29,0,0,0,.2-1.09,12.41,12.41,0,0,1,.63-2,10.94,10.94,0,0,0,.36-3.18,32.32,32.32,0,0,0-.15-4.29,7.48,7.48,0,0,0-1.93-4.57,5.94,5.94,0,0,0-3.64-1.5,8.26,8.26,0,0,0-4.29.67A5.17,5.17,0,0,0,312.46,109.66Z" transform="translate(-10.37 -19.51)" fill="#ffbbab"/><path d="M311.11,104a3.64,3.64,0,0,0,.1,2.39,5,5,0,0,0,4.62,3.22,1.51,1.51,0,0,1,.56.06,1.31,1.31,0,0,1,.37.24l2.08,1.71a4.67,4.67,0,0,1,1.17,1.22,4.81,4.81,0,0,1,.49,1.71,2.82,2.82,0,0,1,.56-1.12,1,1,0,0,1,1.15-.22,1.16,1.16,0,0,1,.42.69,2.82,2.82,0,0,1-1,2.84c.65.15.93.9,1.1,1.54l.74,2.8a.89.89,0,0,0,.71-.61c0,.15.21.22.34.14a.67.67,0,0,0,.25-.36c.68-1.81,1.31-3.65,1.89-5.49a15.53,15.53,0,0,0,1-5.45,3.36,3.36,0,0,0-.31-1.4,1.52,1.52,0,0,0-1.1-.84A.67.67,0,0,1,326,107a.44.44,0,0,1-.13-.32,7.77,7.77,0,0,0-.37-1.92,3.86,3.86,0,0,0-5.2-2.13.64.64,0,0,1-.48.09.59.59,0,0,1-.25-.22,3.76,3.76,0,0,0-2.19-1.2,10.69,10.69,0,0,0-2.53-.12,3.68,3.68,0,0,0-1.28.18c-.6.23-.73.81-1.2,1.14A2.9,2.9,0,0,0,311.11,104Z" transform="translate(-10.37 -19.51)" fill="#fc682d"/><path d="M359.44,196.15c.32.39.17,1,0,1.46l-3.32,10.13a2.93,2.93,0,0,1-.53,1.11,2.05,2.05,0,0,1-2.83-.16,5.08,5.08,0,0,1-1.2-2.88,25,25,0,0,1-.09-7.63c.16-1.11.61-3.8,2-4.13S358.16,195.7,359.44,196.15Z" transform="translate(-10.37 -19.51)" fill="#473f47"/><path d="M344.43,209.3c0,.5-.41.9-.82,1.2l-8.52,6.41a3.07,3.07,0,0,1-1.07.6,2,2,0,0,1-2.23-1.75,5.13,5.13,0,0,1,.66-3,25,25,0,0,1,4.3-6.31c.77-.82,2.68-2.77,4-2.26S343.64,208.19,344.43,209.3Z" transform="translate(-10.37 -19.51)" fill="#473f47"/><circle cx="135.31" cy="102.1" r="2.08" fill="#fff"/><circle cx="140.98" cy="102.1" r="2.08" fill="#fff"/><circle cx="146.64" cy="102.1" r="2.08" fill="#fff"/><rect x="160.12" y="248.73" width="91.51" height="6.76" fill="#db4b23"/><path d="M112.46,149.41a26.78,26.78,0,0,1-3.33.51l-7.26-.25c-2.75-.1-5.63-.24-8-1.65,3-1.13,4.84-4.22,5.75-7.3s1.15-6.35,2.22-9.38a4.92,4.92,0,0,1,1.71-2.6A6.55,6.55,0,0,1,106,128a18.49,18.49,0,0,0,9.17-4.86c-.27.26,1.8,3.61,2,4s.49.84.67,1.22c-2,.74-4.42.91-5.93,2.34a6.31,6.31,0,0,0-1.53,3.93A29.8,29.8,0,0,0,112.46,149.41Z" transform="translate(-10.37 -19.51)" fill="url(#linear-gradient-4)"/><path d="M124.33,118.68a.82.82,0,0,1,.74,0,40.49,40.49,0,0,1,7.42,4,.66.66,0,0,1,.3.34c.05.22-.12.42-.29.57-.92.87-1.86,1.71-2.83,2.52-1.65,1.38-2.85,1.44-3.59-.6C125.8,124.78,123.63,119.17,124.33,118.68Z" transform="translate(-10.37 -19.51)" fill="url(#linear-gradient-5)"/><rect x="216.72" y="117.01" width="55.75" height="37.27" fill="#db4b23" opacity="0.28"/><rect x="148.72" y="164.82" width="123.75" height="31.53" fill="#db4b23" opacity="0.18"/><path d="M124.74,109.78c.22-.53-.58-1-1.09-.74a2,2,0,0,0-.85,1.43,13.9,13.9,0,0,1-.89,2.92,3.62,3.62,0,0,1-2.21,2c-1,.25-2.07-.11-3,.18-1.47.42-2.18,2-3.06,3.26-2.12,3-6,4.39-9.64,4.37a9.55,9.55,0,0,1-2.5-.29,6.73,6.73,0,0,1-4.4-3.84,10.88,10.88,0,0,0,5.55-.09l.18-.77c5.52-.1,9.45-6.12,14.94-6.61a2.15,2.15,0,0,0-1.64-1,16.61,16.61,0,0,1,8.49-4,2.53,2.53,0,0,1,2.08.59Z" transform="translate(-10.37 -19.51)" fill="url(#linear-gradient-6)"/></svg>