<?xml version="1.0" standalone="no"?><svg xmlns="http://www.w3.org/2000/svg" viewBox="0 0 1440 320"><path fill="#db4b23" fill-opacity="1" d="M0,224L34.3,202.7C68.6,181,137,139,206,138.7C274.3,139,343,181,411,181.3C480,181,549,139,617,112C685.7,85,754,75,823,101.3C891.4,128,960,192,1029,197.3C1097.1,203,1166,149,1234,128C1302.9,107,1371,117,1406,122.7L1440,128L1440,320L1405.7,320C1371.4,320,1303,320,1234,320C1165.7,320,1097,320,1029,320C960,320,891,320,823,320C754.3,320,686,320,617,320C548.6,320,480,320,411,320C342.9,320,274,320,206,320C137.1,320,69,320,34,320L0,320Z"></path></svg>